<mxfile host="app.diagrams.net" agent="Mozilla/5.0 (Windows NT 10.0; Win64; x64; rv:130.0) Gecko/20100101 Firefox/130.0" version="24.7.16">
  <diagram name="Page-1" id="DoOwmTmmxKSQssBYk-SI">
    <mxGraphModel dx="1000" dy="1681" grid="1" gridSize="10" guides="1" tooltips="1" connect="1" arrows="1" fold="1" page="1" pageScale="1" pageWidth="827" pageHeight="1169" math="0" shadow="0">
      <root>
        <mxCell id="0" />
        <mxCell id="1" parent="0" />
        <mxCell id="3k_xSGdX0rv_INgbg1qa-6" value="&lt;div style=&quot;font-size: 13px;&quot;&gt;&lt;font style=&quot;font-size: 23px;&quot;&gt;Communication between Client and Proxy server&lt;/font&gt;&lt;/div&gt;" style="text;html=1;align=center;verticalAlign=middle;whiteSpace=wrap;rounded=0;" vertex="1" parent="1">
          <mxGeometry x="160" y="-100" width="540" height="30" as="geometry" />
        </mxCell>
        <mxCell id="3k_xSGdX0rv_INgbg1qa-8" value="" style="group" vertex="1" connectable="0" parent="1">
          <mxGeometry x="50" y="160" width="140" height="70" as="geometry" />
        </mxCell>
        <mxCell id="3k_xSGdX0rv_INgbg1qa-5" value="" style="rounded=0;whiteSpace=wrap;html=1;" vertex="1" parent="3k_xSGdX0rv_INgbg1qa-8">
          <mxGeometry width="140" height="70" as="geometry" />
        </mxCell>
        <mxCell id="3k_xSGdX0rv_INgbg1qa-7" value="Request" style="text;html=1;align=center;verticalAlign=middle;whiteSpace=wrap;rounded=0;" vertex="1" parent="3k_xSGdX0rv_INgbg1qa-8">
          <mxGeometry width="140" height="70" as="geometry" />
        </mxCell>
        <mxCell id="3k_xSGdX0rv_INgbg1qa-9" value="" style="endArrow=classic;html=1;rounded=0;exitX=1;exitY=0.5;exitDx=0;exitDy=0;entryX=0;entryY=0.5;entryDx=0;entryDy=0;" edge="1" parent="1">
          <mxGeometry width="50" height="50" relative="1" as="geometry">
            <mxPoint x="190" y="180" as="sourcePoint" />
            <mxPoint x="374" y="180" as="targetPoint" />
          </mxGeometry>
        </mxCell>
        <mxCell id="3k_xSGdX0rv_INgbg1qa-10" value="" style="group" vertex="1" connectable="0" parent="1">
          <mxGeometry x="374" y="160" width="216" height="70" as="geometry" />
        </mxCell>
        <mxCell id="3k_xSGdX0rv_INgbg1qa-11" value="" style="rounded=0;whiteSpace=wrap;html=1;" vertex="1" parent="3k_xSGdX0rv_INgbg1qa-10">
          <mxGeometry width="140" height="70" as="geometry" />
        </mxCell>
        <mxCell id="3k_xSGdX0rv_INgbg1qa-12" value="REST Endpoint" style="text;html=1;align=center;verticalAlign=middle;whiteSpace=wrap;rounded=0;" vertex="1" parent="3k_xSGdX0rv_INgbg1qa-10">
          <mxGeometry width="140" height="70" as="geometry" />
        </mxCell>
        <mxCell id="3k_xSGdX0rv_INgbg1qa-13" value="" style="endArrow=none;dashed=1;html=1;dashPattern=1 3;strokeWidth=2;rounded=0;" edge="1" parent="1">
          <mxGeometry width="50" height="50" relative="1" as="geometry">
            <mxPoint x="280" y="644" as="sourcePoint" />
            <mxPoint x="280" y="40" as="targetPoint" />
          </mxGeometry>
        </mxCell>
        <mxCell id="3k_xSGdX0rv_INgbg1qa-14" value="&lt;font style=&quot;font-size: 15px;&quot;&gt;Client&lt;/font&gt;" style="text;html=1;align=center;verticalAlign=middle;whiteSpace=wrap;rounded=0;" vertex="1" parent="1">
          <mxGeometry x="90" y="10" width="60" height="30" as="geometry" />
        </mxCell>
        <mxCell id="3k_xSGdX0rv_INgbg1qa-63" value="" style="rounded=0;whiteSpace=wrap;html=1;fillColor=#dae8fc;strokeColor=#6c8ebf;" vertex="1" parent="1">
          <mxGeometry x="340" y="310" width="450" height="200" as="geometry" />
        </mxCell>
        <mxCell id="3k_xSGdX0rv_INgbg1qa-15" value="&lt;font style=&quot;font-size: 15px;&quot;&gt;Server&lt;/font&gt; (proxy gateway)" style="text;html=1;align=center;verticalAlign=middle;whiteSpace=wrap;rounded=0;" vertex="1" parent="1">
          <mxGeometry x="470" y="10" width="160" height="30" as="geometry" />
        </mxCell>
        <mxCell id="3k_xSGdX0rv_INgbg1qa-17" value="" style="edgeStyle=orthogonalEdgeStyle;rounded=0;orthogonalLoop=1;jettySize=auto;html=1;entryX=0.679;entryY=0;entryDx=0;entryDy=0;entryPerimeter=0;" edge="1" parent="1" source="3k_xSGdX0rv_INgbg1qa-12" target="3k_xSGdX0rv_INgbg1qa-20">
          <mxGeometry relative="1" as="geometry">
            <mxPoint x="444" y="315" as="targetPoint" />
            <Array as="points">
              <mxPoint x="470" y="265" />
            </Array>
          </mxGeometry>
        </mxCell>
        <mxCell id="3k_xSGdX0rv_INgbg1qa-46" value="&lt;div&gt;Recieve&amp;nbsp;&lt;/div&gt;&lt;div&gt;request&lt;/div&gt;&lt;div&gt;&amp;nbsp;info&lt;/div&gt;" style="edgeLabel;html=1;align=center;verticalAlign=middle;resizable=0;points=[];" vertex="1" connectable="0" parent="3k_xSGdX0rv_INgbg1qa-17">
          <mxGeometry x="-0.1429" y="2" relative="1" as="geometry">
            <mxPoint as="offset" />
          </mxGeometry>
        </mxCell>
        <mxCell id="3k_xSGdX0rv_INgbg1qa-18" value="" style="group" vertex="1" connectable="0" parent="1">
          <mxGeometry x="374" y="391" width="140" height="70" as="geometry" />
        </mxCell>
        <mxCell id="3k_xSGdX0rv_INgbg1qa-19" value="" style="rounded=0;whiteSpace=wrap;html=1;" vertex="1" parent="3k_xSGdX0rv_INgbg1qa-18">
          <mxGeometry width="140" height="70" as="geometry" />
        </mxCell>
        <mxCell id="3k_xSGdX0rv_INgbg1qa-20" value="Task processor" style="text;html=1;align=center;verticalAlign=middle;whiteSpace=wrap;rounded=0;" vertex="1" parent="3k_xSGdX0rv_INgbg1qa-18">
          <mxGeometry width="140" height="70" as="geometry" />
        </mxCell>
        <mxCell id="3k_xSGdX0rv_INgbg1qa-25" value="" style="group" vertex="1" connectable="0" parent="1">
          <mxGeometry x="50" y="300" width="140" height="70" as="geometry" />
        </mxCell>
        <mxCell id="3k_xSGdX0rv_INgbg1qa-26" value="" style="rounded=0;whiteSpace=wrap;html=1;" vertex="1" parent="3k_xSGdX0rv_INgbg1qa-25">
          <mxGeometry width="140" height="70" as="geometry" />
        </mxCell>
        <mxCell id="3k_xSGdX0rv_INgbg1qa-27" value="&lt;div&gt;Response&lt;/div&gt;" style="text;html=1;align=center;verticalAlign=middle;whiteSpace=wrap;rounded=0;" vertex="1" parent="3k_xSGdX0rv_INgbg1qa-25">
          <mxGeometry width="140" height="70" as="geometry" />
        </mxCell>
        <mxCell id="3k_xSGdX0rv_INgbg1qa-64" style="edgeStyle=orthogonalEdgeStyle;rounded=0;orthogonalLoop=1;jettySize=auto;html=1;entryX=0.5;entryY=0;entryDx=0;entryDy=0;" edge="1" parent="1" source="3k_xSGdX0rv_INgbg1qa-30" target="3k_xSGdX0rv_INgbg1qa-32">
          <mxGeometry relative="1" as="geometry" />
        </mxCell>
        <mxCell id="3k_xSGdX0rv_INgbg1qa-30" value="Process request structure" style="whiteSpace=wrap;html=1;" vertex="1" parent="1">
          <mxGeometry x="635" y="320" width="120" height="60" as="geometry" />
        </mxCell>
        <mxCell id="3k_xSGdX0rv_INgbg1qa-31" value="" style="edgeStyle=orthogonalEdgeStyle;rounded=0;orthogonalLoop=1;jettySize=auto;html=1;entryX=0;entryY=0.5;entryDx=0;entryDy=0;" edge="1" parent="1" source="3k_xSGdX0rv_INgbg1qa-20" target="3k_xSGdX0rv_INgbg1qa-30">
          <mxGeometry relative="1" as="geometry">
            <mxPoint x="580" y="361" as="targetPoint" />
          </mxGeometry>
        </mxCell>
        <mxCell id="3k_xSGdX0rv_INgbg1qa-65" style="edgeStyle=orthogonalEdgeStyle;rounded=0;orthogonalLoop=1;jettySize=auto;html=1;entryX=0.75;entryY=0;entryDx=0;entryDy=0;" edge="1" parent="1" source="3k_xSGdX0rv_INgbg1qa-32" target="3k_xSGdX0rv_INgbg1qa-37">
          <mxGeometry relative="1" as="geometry">
            <Array as="points">
              <mxPoint x="695" y="500" />
              <mxPoint x="475" y="500" />
            </Array>
          </mxGeometry>
        </mxCell>
        <mxCell id="3k_xSGdX0rv_INgbg1qa-69" value="&lt;div&gt;Send request&lt;/div&gt;&lt;div&gt;params to dispatcher&lt;/div&gt;" style="edgeLabel;html=1;align=center;verticalAlign=middle;resizable=0;points=[];" vertex="1" connectable="0" parent="3k_xSGdX0rv_INgbg1qa-65">
          <mxGeometry x="-0.2852" y="-1" relative="1" as="geometry">
            <mxPoint as="offset" />
          </mxGeometry>
        </mxCell>
        <mxCell id="3k_xSGdX0rv_INgbg1qa-32" value="Prepare request for microservice" style="whiteSpace=wrap;html=1;" vertex="1" parent="1">
          <mxGeometry x="635" y="420" width="120" height="60" as="geometry" />
        </mxCell>
        <mxCell id="3k_xSGdX0rv_INgbg1qa-35" value="" style="group" vertex="1" connectable="0" parent="1">
          <mxGeometry x="370" y="551" width="140" height="70" as="geometry" />
        </mxCell>
        <mxCell id="3k_xSGdX0rv_INgbg1qa-36" value="" style="rounded=0;whiteSpace=wrap;html=1;" vertex="1" parent="3k_xSGdX0rv_INgbg1qa-35">
          <mxGeometry width="140" height="70" as="geometry" />
        </mxCell>
        <mxCell id="3k_xSGdX0rv_INgbg1qa-37" value="Worker thread dispatcher (manager)" style="text;html=1;align=center;verticalAlign=middle;whiteSpace=wrap;rounded=0;" vertex="1" parent="3k_xSGdX0rv_INgbg1qa-35">
          <mxGeometry width="140" height="70" as="geometry" />
        </mxCell>
        <mxCell id="3k_xSGdX0rv_INgbg1qa-42" value="" style="edgeStyle=orthogonalEdgeStyle;rounded=0;orthogonalLoop=1;jettySize=auto;html=1;" edge="1" parent="1" source="3k_xSGdX0rv_INgbg1qa-39" target="3k_xSGdX0rv_INgbg1qa-41">
          <mxGeometry relative="1" as="geometry">
            <Array as="points">
              <mxPoint x="840" y="571" />
              <mxPoint x="840" y="571" />
            </Array>
          </mxGeometry>
        </mxCell>
        <mxCell id="3k_xSGdX0rv_INgbg1qa-55" value="executed worker (Send request)" style="edgeLabel;html=1;align=center;verticalAlign=middle;resizable=0;points=[];" vertex="1" connectable="0" parent="3k_xSGdX0rv_INgbg1qa-42">
          <mxGeometry x="-0.0741" y="1" relative="1" as="geometry">
            <mxPoint as="offset" />
          </mxGeometry>
        </mxCell>
        <mxCell id="3k_xSGdX0rv_INgbg1qa-59" style="edgeStyle=orthogonalEdgeStyle;rounded=0;orthogonalLoop=1;jettySize=auto;html=1;exitX=0;exitY=0.75;exitDx=0;exitDy=0;entryX=1;entryY=0.75;entryDx=0;entryDy=0;" edge="1" parent="1" source="3k_xSGdX0rv_INgbg1qa-39" target="3k_xSGdX0rv_INgbg1qa-37">
          <mxGeometry relative="1" as="geometry">
            <mxPoint x="530" y="601" as="targetPoint" />
            <Array as="points">
              <mxPoint x="580" y="604" />
              <mxPoint x="545" y="604" />
            </Array>
          </mxGeometry>
        </mxCell>
        <mxCell id="3k_xSGdX0rv_INgbg1qa-62" value="&lt;div&gt;Completable&lt;/div&gt;&lt;div&gt;future output&lt;br&gt;&lt;/div&gt;" style="edgeLabel;html=1;align=center;verticalAlign=middle;resizable=0;points=[];" vertex="1" connectable="0" parent="3k_xSGdX0rv_INgbg1qa-59">
          <mxGeometry x="0.0418" y="-2" relative="1" as="geometry">
            <mxPoint y="28" as="offset" />
          </mxGeometry>
        </mxCell>
        <mxCell id="3k_xSGdX0rv_INgbg1qa-39" value="Worker thread" style="whiteSpace=wrap;html=1;" vertex="1" parent="1">
          <mxGeometry x="580" y="556" width="120" height="60" as="geometry" />
        </mxCell>
        <mxCell id="3k_xSGdX0rv_INgbg1qa-40" value="" style="edgeStyle=orthogonalEdgeStyle;rounded=0;orthogonalLoop=1;jettySize=auto;html=1;" edge="1" parent="1" source="3k_xSGdX0rv_INgbg1qa-37" target="3k_xSGdX0rv_INgbg1qa-39">
          <mxGeometry relative="1" as="geometry">
            <Array as="points">
              <mxPoint x="550" y="571" />
              <mxPoint x="550" y="571" />
            </Array>
          </mxGeometry>
        </mxCell>
        <mxCell id="3k_xSGdX0rv_INgbg1qa-57" value="&lt;div&gt;Prepare&amp;nbsp;&lt;/div&gt;&lt;div&gt;and start&lt;/div&gt;" style="edgeLabel;html=1;align=center;verticalAlign=middle;resizable=0;points=[];" vertex="1" connectable="0" parent="3k_xSGdX0rv_INgbg1qa-40">
          <mxGeometry x="-0.0571" y="2" relative="1" as="geometry">
            <mxPoint as="offset" />
          </mxGeometry>
        </mxCell>
        <mxCell id="3k_xSGdX0rv_INgbg1qa-54" value="" style="edgeStyle=orthogonalEdgeStyle;rounded=0;orthogonalLoop=1;jettySize=auto;html=1;entryX=1;entryY=0.75;entryDx=0;entryDy=0;" edge="1" parent="1" source="3k_xSGdX0rv_INgbg1qa-41" target="3k_xSGdX0rv_INgbg1qa-39">
          <mxGeometry relative="1" as="geometry">
            <mxPoint x="870" y="586" as="targetPoint" />
            <Array as="points">
              <mxPoint x="900" y="601" />
              <mxPoint x="900" y="601" />
            </Array>
          </mxGeometry>
        </mxCell>
        <mxCell id="3k_xSGdX0rv_INgbg1qa-56" value="Get response" style="edgeLabel;html=1;align=center;verticalAlign=middle;resizable=0;points=[];" vertex="1" connectable="0" parent="3k_xSGdX0rv_INgbg1qa-54">
          <mxGeometry x="0.0815" y="-2" relative="1" as="geometry">
            <mxPoint as="offset" />
          </mxGeometry>
        </mxCell>
        <mxCell id="3k_xSGdX0rv_INgbg1qa-41" value="Microservice worker" style="whiteSpace=wrap;html=1;" vertex="1" parent="1">
          <mxGeometry x="970" y="556" width="120" height="60" as="geometry" />
        </mxCell>
        <mxCell id="3k_xSGdX0rv_INgbg1qa-47" value="" style="edgeStyle=orthogonalEdgeStyle;rounded=0;orthogonalLoop=1;jettySize=auto;html=1;" edge="1" parent="1" source="3k_xSGdX0rv_INgbg1qa-20" target="3k_xSGdX0rv_INgbg1qa-12">
          <mxGeometry relative="1" as="geometry">
            <Array as="points">
              <mxPoint x="420" y="270" />
              <mxPoint x="420" y="270" />
            </Array>
          </mxGeometry>
        </mxCell>
        <mxCell id="3k_xSGdX0rv_INgbg1qa-48" value="&lt;div&gt;Prepare&lt;/div&gt;&lt;div&gt;unified&amp;nbsp;&lt;/div&gt;&lt;div&gt;response&lt;br&gt;&lt;/div&gt;" style="edgeLabel;html=1;align=center;verticalAlign=middle;resizable=0;points=[];" vertex="1" connectable="0" parent="3k_xSGdX0rv_INgbg1qa-47">
          <mxGeometry x="0.0571" y="-1" relative="1" as="geometry">
            <mxPoint as="offset" />
          </mxGeometry>
        </mxCell>
        <mxCell id="3k_xSGdX0rv_INgbg1qa-49" value="" style="endArrow=none;dashed=1;html=1;dashPattern=1 3;strokeWidth=2;rounded=0;" edge="1" parent="1">
          <mxGeometry width="50" height="50" relative="1" as="geometry">
            <mxPoint x="810" y="640" as="sourcePoint" />
            <mxPoint x="810" y="36" as="targetPoint" />
          </mxGeometry>
        </mxCell>
        <mxCell id="3k_xSGdX0rv_INgbg1qa-50" value="&lt;font style=&quot;font-size: 15px;&quot;&gt;Microservice server&lt;/font&gt;" style="text;html=1;align=center;verticalAlign=middle;whiteSpace=wrap;rounded=0;" vertex="1" parent="1">
          <mxGeometry x="920" y="10" width="160" height="30" as="geometry" />
        </mxCell>
        <mxCell id="3k_xSGdX0rv_INgbg1qa-52" value="&lt;div&gt;async&amp;nbsp;&lt;/div&gt;&lt;div&gt;communication&lt;/div&gt;&lt;div&gt;&lt;br&gt;&lt;/div&gt;" style="text;html=1;align=center;verticalAlign=middle;resizable=0;points=[];autosize=1;strokeColor=none;fillColor=none;" vertex="1" parent="1">
          <mxGeometry x="755" y="-7" width="110" height="60" as="geometry" />
        </mxCell>
        <mxCell id="3k_xSGdX0rv_INgbg1qa-67" style="edgeStyle=orthogonalEdgeStyle;rounded=0;orthogonalLoop=1;jettySize=auto;html=1;exitX=0.25;exitY=0;exitDx=0;exitDy=0;entryX=0.25;entryY=1;entryDx=0;entryDy=0;" edge="1" parent="1" source="3k_xSGdX0rv_INgbg1qa-37" target="3k_xSGdX0rv_INgbg1qa-20">
          <mxGeometry relative="1" as="geometry" />
        </mxCell>
        <mxCell id="3k_xSGdX0rv_INgbg1qa-68" value="&lt;div&gt;Send response&lt;/div&gt;&lt;div&gt;from worker thread&lt;br&gt; &lt;/div&gt;" style="edgeLabel;html=1;align=center;verticalAlign=middle;resizable=0;points=[];" vertex="1" connectable="0" parent="3k_xSGdX0rv_INgbg1qa-67">
          <mxGeometry x="-0.3404" relative="1" as="geometry">
            <mxPoint as="offset" />
          </mxGeometry>
        </mxCell>
        <mxCell id="3k_xSGdX0rv_INgbg1qa-70" style="edgeStyle=orthogonalEdgeStyle;rounded=0;orthogonalLoop=1;jettySize=auto;html=1;exitX=0;exitY=0.75;exitDx=0;exitDy=0;entryX=1;entryY=0.5;entryDx=0;entryDy=0;" edge="1" parent="1" source="3k_xSGdX0rv_INgbg1qa-12" target="3k_xSGdX0rv_INgbg1qa-27">
          <mxGeometry relative="1" as="geometry" />
        </mxCell>
      </root>
    </mxGraphModel>
  </diagram>
</mxfile>
